# Blender 5.1.0
# www.blender.org
mtllib Office_2C.mtl
o Vivianna_Corporate_Park.015
v -0.746691 -6.792942 0.967558
v -0.746691 -6.792942 2.719558
v 0.526109 -6.792942 2.719558
v 0.526109 -6.792942 0.967558
v -0.110291 -7.429342 2.719558
v -0.110291 -7.429342 0.967558
v 0.520108 -5.832941 0.607558
v 0.520108 -5.832941 2.719558
v 0.520108 -5.592941 0.607558
v 0.520108 -5.592941 2.719558
v 0.526109 -4.632942 0.967558
v 0.526109 -4.632942 2.719558
v -0.110291 -3.996544 0.967558
v -0.110291 -3.996544 2.719558
v -0.746691 -4.632942 0.967558
v -0.746691 -4.632942 2.719558
v -0.740691 -5.592941 0.607558
v -0.740691 -5.592941 2.719558
v -0.740691 -5.832941 0.607558
v -0.740691 -5.832941 2.719558
v 0.520108 6.046459 0.607556
v 0.520108 6.046459 2.719556
v 0.520108 6.286459 0.607556
v 0.520107 6.286459 2.719556
v 0.526108 7.246459 2.719556
v -0.110292 7.882858 2.719556
v 0.526109 7.246459 0.967556
v -0.110291 7.882858 0.967556
v -0.746691 7.246459 0.967556
v -0.746692 7.246459 2.719556
v -0.740691 6.286459 0.607556
v -0.740692 6.286459 2.719556
v -0.740691 6.046459 0.607556
v -0.740691 6.046459 2.719556
v -0.746691 5.086459 0.967556
v -0.746691 5.086459 2.719556
v -0.110291 4.450059 0.967556
v -0.110291 4.450059 2.719556
v 0.526109 5.086459 0.967556
v 0.526109 5.086459 2.719556
vn -0.7071 -0.7071 -0.0000
vn 0.7071 -0.7071 -0.0000
vn 1.0000 -0.0000 -0.0000
vn 0.7071 0.7071 -0.0000
vn -0.7071 0.7071 -0.0000
vn -1.0000 -0.0000 -0.0000
vt -692.000000 6.000000
vt -707.000000 6.000000
vt -707.000000 15.733300
vt -692.000000 15.733300
vt 52.000000 17.733299
vt 56.000000 17.733299
vt 56.000000 6.000000
vt 52.000000 6.000000
vt -253.000000 7.000000
vt -238.000000 7.000000
vt -238.000000 16.733299
vt -253.000000 16.733299
vt -223.000000 7.000000
vt -223.000000 16.733299
s 1
usemtl Office_2C.002
f 1/1/1 6/2/1 5/3/1 2/4/1
f 6/2/2 4/1/2 3/4/2 5/3/2
f 10/5/3 8/6/3 7/7/3 9/8/3
f 11/9/4 13/10/4 14/11/4 12/12/4
f 13/10/5 15/13/5 16/14/5 14/11/5
f 20/6/6 18/5/6 17/8/6 19/7/6
f 24/6/3 22/5/3 21/8/3 23/7/3
f 27/1/4 28/2/4 26/3/4 25/4/4
f 28/2/5 29/1/5 30/4/5 26/3/5
f 34/5/6 32/6/6 31/7/6 33/8/6
f 35/13/1 37/10/1 38/11/1 36/14/1
f 37/10/2 39/9/2 40/12/2 38/11/2
